<svg width="51" height="46" viewBox="0 0 51 46" fill="none" xmlns="http://www.w3.org/2000/svg">
<path fill-rule="evenodd" clip-rule="evenodd" d="M21.2898 0.268325C18.2728 1.33802 17.8833 5.13281 20.5921 7.06384C21.6775 7.83767 21.8277 8.627 20.9097 8.73218C20.0257 8.83354 19.3004 8.2914 18.8051 7.15881C17.9522 5.20864 17.7525 4.91169 17.0557 4.55895C15.0479 3.54267 12.9274 4.93648 13.0848 7.1692C13.2158 9.02531 14.2017 9.69815 16.7125 9.64492C18.806 9.60062 19.1949 9.83614 19.8059 11.5182C20.5041 13.4392 21.633 14.1607 23.2084 13.6924C25.2881 13.074 25.681 10.8911 24.0496 9.02075C23.1445 7.98296 23.1296 8.06535 24.4211 6.95519C27.9435 3.92731 25.5265 -1.23413 21.2898 0.268325ZM32.564 0.57239C29.9548 1.88836 29.0236 5.75169 30.5681 8.85267C31.1416 10.004 31.2403 10.3436 31.0687 10.575C29.1816 13.1203 29.2121 16.1615 31.1488 18.5208L31.9375 19.4814L31.3906 20.0013C29.0006 22.2734 29.0015 28.3702 31.3917 27.7316C31.9798 27.5745 32.4269 27.5741 33.1846 27.7302C34.0266 27.9035 34.3144 27.8902 34.9211 27.6494C35.321 27.4907 35.9815 27.3607 36.3888 27.3607C37.0685 27.3607 37.1525 27.3056 37.4123 26.6887C38.1841 24.856 39.668 23.8971 41.7326 23.8971H42.9754L43.1753 23.1224C43.2852 22.6962 43.409 22.2474 43.4503 22.1247C43.4955 21.9902 43.219 21.8223 42.7522 21.701C42.3271 21.5906 41.6708 21.3011 41.294 21.0579C40.4488 20.5123 40.5408 20.5072 39.6207 21.152C38.571 21.8879 37.7123 22.012 36.5479 21.5966C35.6254 21.2675 35.6073 21.2679 35.4116 21.6227C35.1772 22.0478 34.0236 23.1679 33.8201 23.1679C33.2979 23.1679 33.3084 22.284 33.8353 21.8975C34.5325 21.386 34.9062 20.5107 34.9053 19.3912C34.9047 18.5738 34.76 18.2293 33.9472 17.1102C33.758 16.8493 33.776 16.7385 34.0508 16.4721C34.7039 15.8389 36.0083 17.9017 36.0083 19.568C36.0083 20.7052 37.6136 21.1556 38.9702 20.3993L39.6854 20.0002L39.566 18.5308C39.4545 17.161 39.3997 17.0103 38.7584 16.3126C37.9662 15.4508 37.7145 14.46 38.0149 13.3865C38.3369 12.2353 38.2952 12.1538 37.2592 11.9095C35.5112 11.4976 34.1711 10.1099 34.1711 8.71158C34.1711 8.34791 33.9968 8.11403 33.4822 7.78827C31.9818 6.83834 31.2578 5.57669 32.1392 5.44818C32.5697 5.38565 32.7095 5.47206 32.9779 5.96662C33.6218 7.15316 35.5621 7.47454 36.763 6.59352C37.3217 6.18373 38.1402 6.33576 37.9803 6.81956C37.8607 7.18087 36.7156 7.85699 35.8617 8.07028C35.0857 8.26423 35.0587 8.29413 35.166 8.83846C35.6668 11.3783 39.2375 11.7732 41.7089 9.56216C44.291 7.25178 43.3517 3.66991 40.1607 3.65861L39.0396 3.65478L38.0843 2.48683C36.3783 0.401217 34.3192 -0.312824 32.564 0.57239ZM3.7353 6.5237C1.96023 6.86714 1.73867 9.63982 3.43015 10.3411C5.30994 11.1206 7.10559 8.97171 5.94652 7.3298C5.67058 6.93878 4.61329 6.36383 4.27708 6.4218C4.19809 6.43547 3.95429 6.48141 3.7353 6.5237ZM43.6535 8.86489C43.0217 10.0627 42.4283 10.5888 40.7828 11.4112C38.2423 12.6806 38.3656 16.4231 40.9477 16.4231C41.0574 16.4231 40.9832 16.6898 40.7829 17.0156C39.4793 19.1373 41.9091 21.1352 45.1905 20.6397C47.0262 20.3626 47.8285 20.3783 48.6212 20.707C49.5233 21.0809 49.5213 21.0818 49.9545 20.1937C51.0086 18.0331 49.6587 15.0262 47.356 14.4053C46.9248 14.289 46.4771 14.168 46.361 14.1364C46.2224 14.0987 46.3014 13.7815 46.5906 13.2149C47.5388 11.3563 47.0532 9.07762 45.5592 8.37397C44.2631 7.76348 44.23 7.77204 43.6535 8.86489ZM10.037 8.77247C5.77291 10.0399 6.63436 16.6154 11.0629 16.6032C11.4955 16.6021 12.3042 16.48 12.86 16.332C15.9358 15.5127 17.4862 16.2215 18.6438 18.9752C18.9179 19.6269 19.4822 20.6104 19.898 21.1607C22.0278 23.9788 22.2839 27.8762 20.5579 31.2027C19.5994 33.0495 19.5884 33.8797 20.5046 35.2266C21.7603 37.0723 21.7401 37.3873 20.2529 39.1771C18.1428 41.7166 18.2089 43.8472 20.4425 45.2844C24.4861 47.8859 28.1325 42.8209 24.7757 39.2655C23.2719 37.673 23.2235 37.0986 24.4397 35.2835C25.3977 33.8536 25.4203 33.0386 24.5449 31.4798C22.8446 28.4524 22.8915 24.4303 24.6572 21.8197C26.0112 19.818 26.0813 19.6561 26.0847 18.5315C26.0929 15.5689 24.3292 14.4376 20.6725 15.0594C17.6802 15.5683 16.5501 14.938 15.3602 12.096C14.1278 9.15255 12.3959 8.07119 10.037 8.77247ZM1.45519 13.1918C-1.90848 15.4409 1.14728 20.3747 4.6684 18.3798C6.63472 17.2657 6.5537 14.0294 4.53539 13.0791C3.59292 12.6354 2.21155 12.6859 1.45519 13.1918ZM8.2338 18.4249C4.95904 19.4054 5.97977 23.7998 9.39966 23.4439C10.7654 23.3018 11.0212 23.6158 11.0268 25.4417C11.0318 27.0377 11.4196 27.94 12.7463 29.4425C14.6508 31.5997 14.7868 32.4787 13.4971 34.296C11.429 37.2101 12.4016 39.7566 15.5827 39.7566C18.2212 39.7566 19.0444 37.5293 17.5185 34.519L16.6655 32.8362L16.9958 31.978C17.2174 31.4025 17.7795 30.6658 18.7031 29.7416C23.3032 25.1373 19.9612 19.251 13.8844 21.2546C12.0255 21.8675 11.9234 21.8378 11.5198 20.567C10.9201 18.6795 9.80678 17.9538 8.2338 18.4249ZM45.4381 21.6875C44.2925 22.2198 44.025 22.7421 44.1326 24.236L44.2221 25.4765L43.5598 25.2417C42.416 24.8361 40.3916 24.9218 39.6667 25.4065C38.5339 26.1639 37.8817 27.7725 38.5006 28.2822C38.9441 28.6475 39.3152 29.4709 39.3152 30.0902C39.3152 30.4897 39.525 30.8758 40.0479 31.4388C42.2349 33.7929 41.6023 36.6882 38.6568 37.8061C37.7237 38.1601 37.5172 38.3267 37.197 38.9829C36.7667 39.8651 35.7737 40.947 35.048 41.3241C34.4034 41.6592 34.0111 40.7785 34.6505 40.4318C36.7125 39.3134 36.9376 36.6687 35.0686 35.5161C34.4072 35.1081 34.1711 34.8498 34.1711 34.5341C34.1711 33.4673 36.2282 34.6261 36.9124 36.0783C37.3963 37.1055 37.6217 37.1961 38.6408 36.7736C40.6661 35.9339 40.8296 33.3968 38.9533 31.9224C38.2785 31.3921 38.2129 31.2652 38.2122 30.4899C38.2107 28.5525 36.7674 27.8348 35.0034 28.8943L34.274 29.3324L33.5869 28.9845C30.0588 27.1986 27.4714 32.1344 29.9032 36.0114L30.4604 36.8997L29.8453 37.8268C26.5368 42.8127 31.1676 48.112 35.6629 44.4844C36.1092 44.1241 36.2201 44.1116 37.1869 44.3106C39.8682 44.863 41.5198 43.3811 41.5198 40.4225V39.8304L42.6681 39.8964C45.1831 40.0406 46.5733 38.5968 46.57 35.8442L46.5678 34.1536L47.5294 33.6542C53.3462 30.6323 51.3066 18.961 45.4381 21.6875ZM8.52701 29.7972C5.80561 31.0215 6.75506 35.1962 9.75552 35.1985C12.4681 35.2007 13.5642 31.6746 11.3579 30.0431C10.7358 29.583 9.28356 29.4569 8.52701 29.7972Z" fill="#006AE4"/>
</svg>
