<svg width="16" height="16" viewBox="0 0 16 16" fill="none" xmlns="http://www.w3.org/2000/svg">
<path d="M2 16C1.45 16 0.979333 15.8043 0.588 15.413C0.196 15.021 0 14.55 0 14V7C0 6.45 0.196 5.979 0.588 5.587C0.979333 5.19567 1.45 5 2 5C2.55 5 3.02067 5.19567 3.412 5.587C3.804 5.979 4 6.45 4 7V14C4 14.55 3.804 15.021 3.412 15.413C3.02067 15.8043 2.55 16 2 16ZM8 16C7.45 16 6.97933 15.8043 6.588 15.413C6.196 15.021 6 14.55 6 14V2C6 1.45 6.196 0.979333 6.588 0.588C6.97933 0.196 7.45 0 8 0C8.55 0 9.021 0.196 9.413 0.588C9.80433 0.979333 10 1.45 10 2V14C10 14.55 9.80433 15.021 9.413 15.413C9.021 15.8043 8.55 16 8 16ZM14 16C13.45 16 12.979 15.8043 12.587 15.413C12.1957 15.021 12 14.55 12 14V11C12 10.45 12.1957 9.979 12.587 9.587C12.979 9.19567 13.45 9 14 9C14.55 9 15.021 9.19567 15.413 9.587C15.8043 9.979 16 10.45 16 11V14C16 14.55 15.8043 15.021 15.413 15.413C15.021 15.8043 14.55 16 14 16Z" fill="white"/>
</svg>
