<svg width="15" height="15" viewBox="0 0 15 15" fill="none" xmlns="http://www.w3.org/2000/svg">
<path d="M0.375 14.625V3.54167H3.54167V0.375H11.4583V6.70833H14.625V14.625H8.29167V11.4583H6.70833V14.625H0.375ZM1.95833 13.0417H3.54167V11.4583H1.95833V13.0417ZM1.95833 9.875H3.54167V8.29167H1.95833V9.875ZM1.95833 6.70833H3.54167V5.125H1.95833V6.70833ZM5.125 9.875H6.70833V8.29167H5.125V9.875ZM5.125 6.70833H6.70833V5.125H5.125V6.70833ZM5.125 3.54167H6.70833V1.95833H5.125V3.54167ZM8.29167 9.875H9.875V8.29167H8.29167V9.875ZM8.29167 6.70833H9.875V5.125H8.29167V6.70833ZM8.29167 3.54167H9.875V1.95833H8.29167V3.54167ZM11.4583 13.0417H13.0417V11.4583H11.4583V13.0417ZM11.4583 9.875H13.0417V8.29167H11.4583V9.875Z" fill="#A4AABB"/>
</svg>
