<svg width="17" height="14" viewBox="0 0 17 14" fill="none" xmlns="http://www.w3.org/2000/svg">
<path d="M6.91658 6.50033C6.04575 6.50033 5.30027 6.19026 4.68013 5.57012C4.05999 4.94998 3.74992 4.20449 3.74992 3.33366C3.74992 2.46283 4.05999 1.71734 4.68013 1.0972C5.30027 0.477062 6.04575 0.166992 6.91658 0.166992C7.78742 0.166992 8.5329 0.477062 9.15304 1.0972C9.77318 1.71734 10.0833 2.46283 10.0833 3.33366C10.0833 4.20449 9.77318 4.94998 9.15304 5.57012C8.5329 6.19026 7.78742 6.50033 6.91658 6.50033ZM0.583252 12.8337V10.617C0.583252 10.1816 0.695405 9.77255 0.91971 9.38991C1.14402 9.00727 1.45409 8.71699 1.84992 8.51908C2.52284 8.17602 3.28152 7.88574 4.12596 7.64824C4.9704 7.41074 5.90061 7.29199 6.91658 7.29199H7.19367C7.27284 7.29199 7.352 7.30519 7.43117 7.33158C7.32561 7.56908 7.23642 7.8166 7.16359 8.07416C7.09128 8.33119 7.03534 8.59824 6.99575 8.87533H6.91658C5.97978 8.87533 5.1385 8.99407 4.39275 9.23158C3.64753 9.46908 3.03742 9.70658 2.56242 9.94408C2.44367 10.01 2.34814 10.1024 2.27584 10.2212C2.203 10.3399 2.16659 10.4719 2.16659 10.617V11.2503H7.15409C7.23325 11.5274 7.33881 11.8013 7.47075 12.0721C7.6027 12.3423 7.74784 12.5962 7.90617 12.8337H0.583252ZM11.6666 13.6253L11.4291 12.4378C11.2708 12.3719 11.1222 12.3027 10.9834 12.2304C10.8451 12.1576 10.7034 12.0684 10.5583 11.9628L9.41033 12.3191L8.61867 10.9732L9.52909 10.1816C9.5027 9.99685 9.4895 9.82533 9.4895 9.66699C9.4895 9.50866 9.5027 9.33713 9.52909 9.15241L8.61867 8.36074L9.41033 7.01491L10.5583 7.37116C10.7034 7.2656 10.8451 7.17641 10.9834 7.10358C11.1222 7.03127 11.2708 6.96213 11.4291 6.89616L11.6666 5.70866H13.2499L13.4874 6.89616C13.6458 6.96213 13.7943 7.0347 13.9331 7.11387C14.0714 7.19303 14.2131 7.29199 14.3583 7.41074L15.5062 7.01491L16.2978 8.40032L15.3874 9.19199C15.4138 9.35032 15.427 9.51525 15.427 9.68678C15.427 9.85831 15.4138 10.0232 15.3874 10.1816L16.2978 10.9732L15.5062 12.3191L14.3583 11.9628C14.2131 12.0684 14.0714 12.1576 13.9331 12.2304C13.7943 12.3027 13.6458 12.3719 13.4874 12.4378L13.2499 13.6253H11.6666ZM12.4583 11.2503C12.8937 11.2503 13.2665 11.0954 13.5769 10.7856C13.8867 10.4753 14.0416 10.1024 14.0416 9.66699C14.0416 9.23158 13.8867 8.8587 13.5769 8.54837C13.2665 8.23856 12.8937 8.08366 12.4583 8.08366C12.0228 8.08366 11.6502 8.23856 11.3404 8.54837C11.0301 8.8587 10.8749 9.23158 10.8749 9.66699C10.8749 10.1024 11.0301 10.4753 11.3404 10.7856C11.6502 11.0954 12.0228 11.2503 12.4583 11.2503ZM6.91658 4.91699C7.352 4.91699 7.72488 4.76183 8.03521 4.45149C8.34502 4.14169 8.49992 3.76908 8.49992 3.33366C8.49992 2.89824 8.34502 2.52563 8.03521 2.21583C7.72488 1.90549 7.352 1.75033 6.91658 1.75033C6.48117 1.75033 6.10856 1.90549 5.79875 2.21583C5.48842 2.52563 5.33325 2.89824 5.33325 3.33366C5.33325 3.76908 5.48842 4.14169 5.79875 4.45149C6.10856 4.76183 6.48117 4.91699 6.91658 4.91699Z" fill="#A4AABB"/>
</svg>
