<svg width="19" height="13" viewBox="0 0 19 13" fill="none" xmlns="http://www.w3.org/2000/svg">
<path d="M0.791504 12.8356V10.6189C0.791504 10.1703 0.907087 9.75787 1.13825 9.38157C1.36889 9.00579 1.67553 8.71894 2.05817 8.52103C2.87623 8.112 3.70748 7.8051 4.55192 7.60032C5.39637 7.39607 6.254 7.29394 7.12484 7.29394C7.99567 7.29394 8.85331 7.39607 9.69776 7.60032C10.5422 7.8051 11.3735 8.112 12.1915 8.52103C12.5741 8.71894 12.8808 9.00579 13.1114 9.38157C13.3426 9.75787 13.4582 10.1703 13.4582 10.6189V12.8356H0.791504ZM15.0415 12.8356V10.4606C15.0415 9.88005 14.88 9.32246 14.557 8.78782C14.2335 8.25371 13.7748 7.79533 13.1811 7.41269C13.854 7.49186 14.4873 7.62697 15.0811 7.81803C15.6748 8.00961 16.229 8.24394 16.7436 8.52103C17.2186 8.78491 17.5814 9.07836 17.8321 9.40136C18.0828 9.72489 18.2082 10.078 18.2082 10.4606V12.8356H15.0415ZM7.12484 6.50228C6.254 6.50228 5.50852 6.19221 4.88838 5.57207C4.26824 4.95193 3.95817 4.20644 3.95817 3.33561C3.95817 2.46478 4.26824 1.71929 4.88838 1.09915C5.50852 0.479015 6.254 0.168945 7.12484 0.168945C7.99567 0.168945 8.74116 0.479015 9.3613 1.09915C9.98144 1.71929 10.2915 2.46478 10.2915 3.33561C10.2915 4.20644 9.98144 4.95193 9.3613 5.57207C8.74116 6.19221 7.99567 6.50228 7.12484 6.50228ZM15.0415 3.33561C15.0415 4.20644 14.7314 4.95193 14.1113 5.57207C13.4912 6.19221 12.7457 6.50228 11.8748 6.50228C11.7297 6.50228 11.545 6.48592 11.3207 6.45319C11.0964 6.41994 10.9116 6.38353 10.7665 6.34394C11.1228 5.92172 11.3964 5.45332 11.5875 4.93874C11.779 4.42415 11.8748 3.88978 11.8748 3.33561C11.8748 2.78144 11.779 2.24707 11.5875 1.73249C11.3964 1.2179 11.1228 0.749501 10.7665 0.327278C10.9512 0.261306 11.136 0.218293 11.3207 0.198237C11.5054 0.178709 11.6901 0.168945 11.8748 0.168945C12.7457 0.168945 13.4912 0.479015 14.1113 1.09915C14.7314 1.71929 15.0415 2.46478 15.0415 3.33561ZM2.37484 11.2523H11.8748V10.6189C11.8748 10.4738 11.8387 10.3419 11.7664 10.2231C11.6935 10.1044 11.5978 10.012 11.479 9.94603C10.7665 9.58978 10.0474 9.32246 9.32171 9.14407C8.59602 8.96621 7.86373 8.87728 7.12484 8.87728C6.38595 8.87728 5.65366 8.96621 4.92796 9.14407C4.20227 9.32246 3.48317 9.58978 2.77067 9.94603C2.65192 10.012 2.55639 10.1044 2.48409 10.2231C2.41125 10.3419 2.37484 10.4738 2.37484 10.6189V11.2523ZM7.12484 4.91894C7.56026 4.91894 7.93313 4.76378 8.24346 4.45344C8.55327 4.14364 8.70817 3.77103 8.70817 3.33561C8.70817 2.90019 8.55327 2.52758 8.24346 2.21778C7.93313 1.90744 7.56026 1.75228 7.12484 1.75228C6.68942 1.75228 6.31681 1.90744 6.007 2.21778C5.69667 2.52758 5.5415 2.90019 5.5415 3.33561C5.5415 3.77103 5.69667 4.14364 6.007 4.45344C6.31681 4.76378 6.68942 4.91894 7.12484 4.91894Z" fill="#A4AABB"/>
</svg>
