<svg width="17" height="16" viewBox="0 0 17 16" fill="none" xmlns="http://www.w3.org/2000/svg">
<path d="M0.583252 14.4966V2.16634C0.583252 1.73092 0.738419 1.35805 1.04875 1.04772C1.35856 0.737911 1.73117 0.583008 2.16659 0.583008H14.8333C15.2687 0.583008 15.6415 0.737911 15.9519 1.04772C16.2617 1.35805 16.4166 1.73092 16.4166 2.16634V11.6663C16.4166 12.1018 16.2617 12.4746 15.9519 12.785C15.6415 13.0948 15.2687 13.2497 14.8333 13.2497H3.74992L1.92909 15.0705C1.67839 15.3212 1.39128 15.3771 1.06775 15.2383C0.744752 15.1001 0.583252 14.8528 0.583252 14.4966ZM2.16659 12.5965L3.09679 11.6663H14.8333V2.16634H2.16659V12.5965Z" fill="#A4AABB"/>
</svg>
