<svg width="15" height="17" viewBox="0 0 15 17" fill="none" xmlns="http://www.w3.org/2000/svg">
<path d="M5.125 7.70801H3.54167V9.29134H5.125V7.70801ZM8.29167 7.70801H6.70833V9.29134H8.29167V7.70801ZM11.4583 7.70801H9.875V9.29134H11.4583V7.70801ZM13.0417 2.16634H12.25V0.583008H10.6667V2.16634H4.33333V0.583008H2.75V2.16634H1.95833C1.07958 2.16634 0.382917 2.87884 0.382917 3.74967L0.375 14.833C0.375 15.7038 1.07958 16.4163 1.95833 16.4163H13.0417C13.9125 16.4163 14.625 15.7038 14.625 14.833V3.74967C14.625 2.87884 13.9125 2.16634 13.0417 2.16634ZM13.0417 14.833H1.95833V6.12467H13.0417V14.833Z" fill="#A4AABB"/>
</svg>
