<svg width="24" height="24" viewBox="0 0 24 24" fill="none" xmlns="http://www.w3.org/2000/svg">
<path d="M17.974 15.5361C17.55 15.2881 17.03 15.2931 16.608 15.5441L14.473 16.8161C13.995 17.1011 13.398 17.0671 12.96 16.7251C12.202 16.1331 10.983 15.1381 9.92098 14.0771C8.86098 13.0151 7.86498 11.7951 7.27298 11.0371C6.93098 10.6001 6.89698 10.0031 7.18298 9.52507L8.45298 7.39007C8.70498 6.96807 8.70698 6.44307 8.45798 6.02007L5.32698 0.66907C5.02298 0.15007 4.41998 -0.10293 3.83698 0.0390703C3.26998 0.17807 2.53498 0.51407 1.76298 1.28707C-0.65002 3.70007 -1.93402 7.77307 7.14698 16.8531C16.227 25.9331 20.299 24.6531 22.714 22.2371C23.488 21.4631 23.823 20.7271 23.961 20.1591C24.102 19.5771 23.851 18.9781 23.335 18.6751C22.045 17.9211 19.264 16.2921 17.974 15.5361Z" fill="#A0A8BB"/>
</svg>
